# xmcd
#
# Track frame offsets:
#	150
#	6840
#	23062
#	34782
#	53853
#	73679
#	90484
#	98936
#	114506
#	126630
#	137157
#	150418
#	163019
#	177049
#	192860
#	206086
#	221501
#	232038
#	250385
#	262124
#	271635
#	291506
#	307935
#	319175
#
# Disc length: 4386
#
# Revision: 1
# Processed by: cddbd v1.5.1PL0 Copyright (c) Steve Scherf et al.
# Submitted via: CDex 1.51
# Normalized: r0:DSETVAR1,TDELIM( - )
#
DISCID=5e112018
DTITLE=Various Artist - Smím prosit?
DYEAR=2000
DGENRE=Jazz
TTITLE0=Astrud Gilberto/Walter Wanderlay - A Certain Smile...
TTITLE1=Oscar Peterson Trio - Calypso Blues
TTITLE2=Ella Fitzgerald - Hallelujah, I Love Him So
TTITLE3=Anita O'Day - You Came A Long Way From St. Louis
TTITLE4=Basie's Beatle Bag - A Hard Day's Night
TTITLE5=Mel Tormé - Blue Moon
TTITLE6=Sarah Vaugham - Peter Gunn
TTITLE7=Woody Herman - Walking Whoopee
TTITLE8=Stan Getz - The Look Of Love
TTITLE9=Willie Bobo - Music To Watch Girls By
TTITLE10=Dizzy Gillespie - Barbados Carnival
TTITLE11=Milt Jackson - Lazy Melody
TTITLE12=Walter Wanderlay - Summer Samba
TTITLE13=Phil Woods - This Is All I Ask
TTITLE14=Miguelito Valdes - Negra Leono
TTITLE15=Bill Evans - Soiree
TTITLE16=Astrud Gilberto/Walter Wanderlay - Nega Do Cabelo Duro
TTITLE17=Chet Baker - Born To Be Blue
TTITLE18=Benny Golson - The Swinger
TTITLE19=Ramsey Lewis Trio - Decision
TTITLE20=Anita O'Day - Ballad Of All The Sad
TTITLE21=Woody Herman - Willow, Weep For Me
TTITLE22=Ella Fitzgerald - Beat Me, Daddy, Eight To The Bar
TTITLE23=Jimmy Smith - Theme From "Any Number Can Win"
EXTD=YEAR: 2000
EXTT0=
EXTT1=
EXTT2=
EXTT3=
EXTT4=
EXTT5=
EXTT6=
EXTT7=
EXTT8=
EXTT9=
EXTT10=
EXTT11=
EXTT12=
EXTT13=
EXTT14=
EXTT15=
EXTT16=
EXTT17=
EXTT18=
EXTT19=
EXTT20=
EXTT21=
EXTT22=
EXTT23=
PLAYORDER=
